<svg width="34" height="34" xmlns="http://www.w3.org/2000/svg">
 <!-- Generator: Sketch 49 (51002) - http://www.bohemiancoding.com/sketch -->
 <title>Casual</title>
 <desc>Created with Sketch.</desc>

 <g>
  <title>background</title>
  <rect fill="none" id="canvas_background" height="402" width="582" y="-1" x="-1"/>
 </g>
 <g>
  <title>Layer 1</title>
  <g fill-rule="evenodd" fill="none" id="Page">
   <path fill="#c8ff00" id="Shape-Copy" d="m30.351351,16.5c0,6.902516 -5.900051,12.5 -13.175675,12.5c-7.275625,0 -13.175676,-5.597484 -13.175676,-12.5c0,-6.902516 5.900051,-12.5 13.175676,-12.5c7.275624,0 13.175675,5.597484 13.175675,12.5zm-18.243243,-1.106642l0,-3.867797c0,-0.420068 -0.351138,-0.768804 -0.774101,-0.768804l-0.478825,0c-0.422962,0 -0.774101,0.348736 -0.774101,0.768804l0,3.867797c0,0.420068 0.351139,0.768804 0.774101,0.768804l0.478825,0c0.430943,0 0.774101,-0.348736 0.774101,-0.768804zm10.712386,0.768804l-0.478826,0c-0.422962,0 -0.7741,-0.348736 -0.7741,-0.768804l0,-3.867797c0,-0.420068 0.351138,-0.768804 0.7741,-0.768804l0.478826,0c0.422962,0 0.774101,0.348736 0.774101,0.768804l0,3.867797c-0.007981,0.420068 -0.351139,0.768804 -0.774101,0.768804zm-10.834813,4.72973c-1.088355,0 -1.640655,1.163399 -0.86906,1.841454c1.551313,1.363247 3.695536,2.2126 6.059055,2.2126c2.37164,0 4.507741,-0.842215 6.059054,-2.2126c0.771596,-0.678055 0.219296,-1.841454 -0.86906,-1.841454l-10.379989,0z"/>
  </g>
 </g>
</svg>