<svg width="34" height="34" xmlns="http://www.w3.org/2000/svg">
 <!-- Generator: Sketch 49 (51002) - http://www.bohemiancoding.com/sketch -->
 <title>Unreal</title>
 <desc>Created with Sketch.</desc>

 <g>
  <title>background</title>
  <rect fill="none" id="canvas_background" height="402" width="582" y="-1" x="-1"/>
 </g>
 <g>
  <title>Layer 1</title>
  <g fill-rule="evenodd" fill="none" id="Page">
   <g fill-rule="nonzero" fill="#FFFFFF" id="game_unreal-copy">
    <path fill="#c8ff00" id="Shape" d="m19.728669,7.658573c0.823563,0.177524 1.658408,0.377239 2.493252,0.532572c0.169226,0.033286 0.428704,0 0.530239,-0.110953c2.414281,-2.418762 5.370082,-3.838953 8.664334,-4.660001c0.090254,-0.022191 0.191789,-0.033286 0.282042,-0.055476c0.033845,0 0.056409,0.02219 0.146662,0.044381c-0.236915,0.288476 -0.462549,0.543667 -0.665619,0.821048c-0.913817,1.176095 -1.80507,2.374381 -2.74145,3.539382c-0.643055,0.798857 -0.913816,1.664286 -0.902534,2.685048c0.06769,4.10524 0.078971,8.221574 0.112817,12.326814c0.011281,0.632429 0.620492,1.065143 1.398929,0.932c0.451267,-0.077667 0.913816,-0.221905 1.331238,-0.421619c1.297394,-0.599143 2.369154,-1.475667 3.350661,-2.496429c0.090253,-0.088762 0.169225,-0.18862 0.27076,-0.255191c-1.80507,4.116335 -4.828561,7.167526 -8.585362,9.65286c-1.094323,-0.920905 -2.177365,-1.84181 -3.091182,-2.607381c-1.060478,0.95419 -2.132238,1.830714 -3.102463,2.818191c-0.496394,0.499286 -0.925098,0.687905 -1.635844,0.554762c-2.673759,-0.466 -5.234702,-1.187191 -7.547447,-2.629572c-0.992788,-0.621334 -1.884041,-1.35362 -2.606069,-2.274525c-0.06769,-0.088762 -0.124099,-0.177524 -0.191789,-0.277381c0.451268,0 0.86869,0.022191 1.286112,0c0.609211,-0.033286 0.913817,-0.299571 1.026634,-0.887619c0.045126,-0.199715 0.056408,-0.410524 0.056408,-0.621334c0,-3.605953 0,-7.200812 0,-10.806765c0.022563,-0.976382 -0.767155,-1.653191 -1.714816,-1.364715c-0.643056,0.188619 -1.286112,0.543667 -1.80507,0.965286c-2.369153,1.919477 -4.129096,4.33824 -5.663405,6.923431c-0.090254,0.133143 -0.157944,0.266286 -0.315887,0.543667c-0.045127,-0.343953 -0.090254,-0.565858 -0.101536,-0.776667c-0.090253,-2.063715 0.564085,-3.949906 1.613281,-5.669669c3.203999,-5.29243 7.626419,-9.253431 13.425205,-11.638908c0.485112,-0.199715 1.00407,-0.332858 1.545591,-0.44381c-0.338451,0.266286 -0.688183,0.521476 -1.015352,0.809953c-1.365084,1.176095 -2.064548,2.629572 -1.850196,4.449192c0.033845,0.266285 0.090253,0.532571 0.191788,0.787762c0.225634,0.565857 0.643057,0.754476 1.240986,0.610238c0.124098,-0.033286 0.248197,-0.066571 0.428704,-0.122048c0,0.221905 0,0.410524 0,0.588048c0,4.460287 0,8.920575 0,13.391957c0,1.231572 0.93638,2.185763 2.21121,2.163572c0.485112,-0.011095 0.970225,-0.210809 1.444056,-0.343952c0.169225,-0.044381 0.315887,-0.155334 0.47383,-0.233c1.680971,-0.954191 1.680971,-0.954191 1.680971,-2.862573c0,-3.350763 -0.011281,-6.690431 0.011282,-10.041194c0.011282,-1.253762 -0.518957,-2.230143 -1.421492,-3.062286c-0.101535,-0.099857 -0.214352,-0.177524 -0.327169,-0.266286c0.033845,-0.077667 0.056408,-0.144238 0.06769,-0.21081z"/>
   </g>
  </g>
 </g>
</svg>